<svg width="20" height="20" viewBox="0 0 20 20" fill="none" xmlns="http://www.w3.org/2000/svg">
<path fill-rule="evenodd" clip-rule="evenodd" d="M10.0002 18.7501C10.1659 18.7501 10.3249 18.6843 10.4421 18.5671C10.5593 18.4499 10.6252 18.2909 10.6252 18.1251V3.38389L14.5577 7.31764C14.6158 7.37575 14.6848 7.42185 14.7607 7.45329C14.8366 7.48474 14.918 7.50093 15.0002 7.50093C15.0824 7.50093 15.1637 7.48474 15.2397 7.45329C15.3156 7.42185 15.3846 7.37575 15.4427 7.31764C15.5008 7.25953 15.5469 7.19054 15.5783 7.11462C15.6098 7.0387 15.626 6.95732 15.626 6.87514C15.626 6.79296 15.6098 6.71159 15.5783 6.63566C15.5469 6.55974 15.5008 6.49075 15.4427 6.43264L10.4427 1.43264C10.3846 1.37444 10.3157 1.32826 10.2397 1.29675C10.1638 1.26524 10.0824 1.24902 10.0002 1.24902C9.91798 1.24902 9.83658 1.26524 9.76065 1.29675C9.68471 1.32826 9.61574 1.37444 9.55769 1.43264L4.55769 6.43264C4.49958 6.49075 4.45348 6.55974 4.42203 6.63566C4.39058 6.71159 4.3744 6.79296 4.3744 6.87514C4.3744 6.95732 4.39058 7.0387 4.42203 7.11462C4.45348 7.19054 4.49958 7.25953 4.55769 7.31764C4.6158 7.37575 4.68478 7.42185 4.76071 7.45329C4.83663 7.48474 4.91801 7.50093 5.00019 7.50093C5.08237 7.50093 5.16374 7.48474 5.23967 7.45329C5.31559 7.42185 5.38458 7.37575 5.44269 7.31764L9.37519 3.38389V18.1251C9.37519 18.2909 9.44103 18.4499 9.55824 18.5671C9.67545 18.6843 9.83443 18.7501 10.0002 18.7501Z" fill="#FFAB00"/>
</svg>
