<svg width="32" height="36" viewBox="0 0 32 36" fill="none" xmlns="http://www.w3.org/2000/svg">
<path d="M25.5633 23.9833C25.55 23.9867 25.5333 23.9867 25.52 23.9867C24.47 23.9867 23.9167 23.7233 23.43 23.49C22.99 23.28 22.61 23.0967 21.8 23.0967C20.99 23.0967 20.61 23.28 20.17 23.49C19.6833 23.7233 19.13 23.9867 18.08 23.9867C17.03 23.9867 16.4767 23.7233 15.99 23.49C15.55 23.28 15.17 23.0967 14.36 23.0967C13.55 23.0967 13.17 23.28 12.73 23.49C12.2433 23.7233 11.69 23.9867 10.64 23.9867C9.59002 23.9867 9.03668 23.7233 8.55001 23.49C8.13668 23.2933 7.78001 23.12 7.07001 23.1L0.89668 31.6867C0.420014 32.35 0.35668 33.18 0.730014 33.9067C1.10335 34.6333 1.81335 35.0667 2.63001 35.0667H29.3633C30.18 35.0667 30.89 34.6333 31.2633 33.9067C31.6367 33.18 31.5734 32.35 31.0967 31.6867L25.5633 23.9833ZM5.14001 33.11C4.23335 33.11 3.49335 32.37 3.49335 31.4633C3.49335 30.5567 4.23335 29.8167 5.14001 29.8167C6.04668 29.8167 6.78668 30.5567 6.78668 31.4633C6.78668 32.37 6.05001 33.11 5.14001 33.11ZM9.72668 31.1067C9.38335 31.1067 9.10335 30.8267 9.10335 30.4833C9.10335 30.14 9.38335 29.86 9.72668 29.86C10.07 29.86 10.35 30.14 10.35 30.4833C10.35 30.8267 10.07 31.1067 9.72668 31.1067ZM9.19001 28.6567C8.28335 28.6567 7.54335 27.9167 7.54335 27.01C7.54335 26.1033 8.28335 25.3633 9.19001 25.3633C10.0967 25.3633 10.8367 26.1033 10.8367 27.01C10.8367 27.92 10.1 28.6567 9.19001 28.6567ZM12.4833 26.9667C12.4833 26.6233 12.7633 26.3433 13.1067 26.3433C13.45 26.3433 13.73 26.6233 13.73 26.9667C13.73 27.31 13.45 27.59 13.1067 27.59C12.7633 27.59 12.4833 27.31 12.4833 26.9667ZM15.6 33.11C14.4233 33.11 13.4633 32.15 13.4633 30.9733C13.4633 29.7967 14.4233 28.8367 15.6 28.8367C16.7767 28.8367 17.7367 29.7967 17.7367 30.9733C17.7367 32.15 16.7767 33.11 15.6 33.11ZM17.7367 26.61C17.3933 26.61 17.1133 26.33 17.1133 25.9867C17.1133 25.6433 17.3933 25.3633 17.7367 25.3633C18.08 25.3633 18.36 25.6433 18.36 25.9867C18.36 26.33 18.08 26.61 17.7367 26.61ZM21.6533 32.3967C21.31 32.3967 21.03 32.1167 21.03 31.7733C21.03 31.43 21.31 31.15 21.6533 31.15C21.9967 31.15 22.2767 31.43 22.2767 31.7733C22.2733 32.1167 21.9967 32.3967 21.6533 32.3967ZM21.4733 28.6133C20.5667 28.6133 19.8267 27.8733 19.8267 26.9667C19.8267 26.06 20.5667 25.32 21.4733 25.32C22.38 25.32 23.12 26.06 23.12 26.9667C23.12 27.8767 22.38 28.6133 21.4733 28.6133ZM26.4133 31.73C25.5067 31.73 24.7667 30.99 24.7667 30.0833C24.7667 29.1767 25.5067 28.4367 26.4133 28.4367C27.32 28.4367 28.06 29.1767 28.06 30.0833C28.06 30.99 27.32 31.73 26.4133 31.73Z" fill="white"/>
<path d="M10.64 22.9164C11.45 22.9164 11.83 22.7331 12.27 22.5231C12.7567 22.2898 13.31 22.0264 14.36 22.0264C15.41 22.0264 15.9634 22.2898 16.45 22.5231C16.89 22.7331 17.27 22.9164 18.08 22.9164C18.89 22.9164 19.27 22.7331 19.71 22.5231C20.1967 22.2898 20.75 22.0264 21.8 22.0264C22.85 22.0264 23.4034 22.2898 23.89 22.5231C24.16 22.6531 24.4067 22.7698 24.7467 22.8431L19.6834 15.8031C19.6167 15.7131 19.5834 15.6031 19.5834 15.4898V3.20311C19.5834 2.90644 19.8234 2.66977 20.1167 2.66977H20.7634C20.9567 2.66977 21.12 2.50644 21.12 2.31311V1.28977C21.12 1.09644 20.9567 0.933105 20.7634 0.933105H11.2367C11.0434 0.933105 10.88 1.09644 10.88 1.28977V2.31311C10.88 2.50644 11.0434 2.66977 11.2367 2.66977H11.8834C12.18 2.66977 12.4167 2.90977 12.4167 3.20311V15.4931C12.4167 15.6064 12.38 15.7131 12.3167 15.8064L7.79004 22.0998C8.31671 22.1931 8.68004 22.3664 9.01004 22.5264C9.45337 22.7364 9.83337 22.9164 10.64 22.9164ZM13.5734 5.35311C13.5734 5.05977 13.8134 4.81977 14.1067 4.81977C14.4 4.81977 14.64 5.05977 14.64 5.35311V5.61977C14.64 5.91644 14.4 6.15311 14.1067 6.15311C13.8134 6.15311 13.5734 5.91311 13.5734 5.61977V5.35311ZM13.5734 7.25311C13.5734 6.95644 13.8134 6.71977 14.1067 6.71977C14.4 6.71977 14.64 6.95977 14.64 7.25311V13.3498C14.64 13.6464 14.4 13.8831 14.1067 13.8831C13.8134 13.8831 13.5734 13.6431 13.5734 13.3498V7.25311Z" fill="white"/>
</svg>
