<svg width="38" height="38" viewBox="0 0 38 38" fill="none" xmlns="http://www.w3.org/2000/svg">
<path d="M31.1885 12.3465C31.0773 12.3436 30.9687 12.3128 30.8724 12.2571C30.7762 12.2015 30.6954 12.1226 30.6374 12.0277C30.5795 11.9328 30.5461 11.8249 30.5405 11.7139C30.5349 11.6028 30.5571 11.4921 30.6052 11.3919C30.8966 10.7824 31.0288 10.109 30.9897 9.43463C30.9505 8.76022 30.7412 8.10671 30.3812 7.53506C30.0212 6.96341 29.5223 6.49225 28.9311 6.16551C28.3398 5.83877 27.6754 5.6671 26.9998 5.66652C25.4625 5.66652 25.1558 6.40986 24.5665 6.12852C24.4735 6.08434 24.392 6.01921 24.3284 5.93824C24.2648 5.85728 24.2208 5.76268 24.1998 5.66186C23.8708 4.04125 22.9511 2.60079 21.6195 1.62023C20.2879 0.639669 18.6394 0.189011 16.9942 0.355779C15.3489 0.522548 13.8244 1.29484 12.7166 2.52266C11.6089 3.75048 10.997 5.34618 10.9998 6.99986C10.9994 7.09997 10.9785 7.19894 10.9384 7.29067C10.8982 7.38239 10.8397 7.46493 10.7665 7.53319C10.3978 7.84719 10.2098 7.66652 9.66651 7.66652C9.1332 7.66763 8.60795 7.79668 8.13486 8.04284C7.66176 8.28899 7.25464 8.64507 6.94766 9.08116C6.64069 9.51726 6.44284 10.0206 6.37071 10.549C6.29859 11.0775 6.3543 11.6154 6.53317 12.1179C6.57171 12.2232 6.58307 12.3365 6.56619 12.4473C6.54932 12.5582 6.50476 12.663 6.43663 12.752C6.36851 12.8411 6.27903 12.9115 6.17646 12.9568C6.07389 13.0021 5.96155 13.0208 5.84984 13.0112C4.73129 12.9694 3.62809 13.2817 2.69735 13.9035C1.76661 14.5253 1.0558 15.4249 0.666138 16.4742C0.276478 17.5235 0.227844 18.669 0.527161 19.7476C0.826479 20.8261 1.45849 21.7828 2.33317 22.4812V20.9999C2.33317 20.823 2.40341 20.6535 2.52843 20.5285C2.65346 20.4034 2.82303 20.3332 2.99984 20.3332C3.17665 20.3332 3.34622 20.4034 3.47124 20.5285C3.59627 20.6535 3.6665 20.823 3.6665 20.9999V36.3332C3.6665 36.6868 3.80698 37.026 4.05703 37.276C4.30708 37.5261 4.64622 37.6665 4.99984 37.6665C5.35346 37.6665 5.6926 37.5261 5.94265 37.276C6.1927 37.026 6.33317 36.6868 6.33317 36.3332V22.3332C6.33317 22.1564 6.40341 21.9868 6.52843 21.8618C6.65346 21.7368 6.82303 21.6665 6.99984 21.6665C7.17665 21.6665 7.34622 21.7368 7.47124 21.8618C7.59627 21.9868 7.66651 22.1564 7.66651 22.3332V23.7825C7.71611 23.856 7.75036 23.9388 7.76717 24.0259C8.0119 25.2605 8.68451 26.3692 9.66651 27.1565V23.6665C9.66651 23.4897 9.73674 23.3201 9.86177 23.1951C9.98679 23.0701 10.1564 22.9999 10.3332 22.9999C10.51 22.9999 10.6796 23.0701 10.8046 23.1951C10.9296 23.3201 10.9998 23.4897 10.9998 23.6665V30.9999C10.9998 31.1767 11.0701 31.3462 11.1951 31.4713C11.3201 31.5963 11.4897 31.6665 11.6665 31.6665C11.8433 31.6665 12.0129 31.5963 12.1379 31.4713C12.2629 31.3462 12.3332 31.1767 12.3332 30.9999V26.3332C12.3332 26.1564 12.4034 25.9868 12.5284 25.8618C12.6535 25.7368 12.823 25.6665 12.9998 25.6665C13.1767 25.6665 13.3462 25.7368 13.4712 25.8618C13.5963 25.9868 13.6665 26.1564 13.6665 26.3332V28.2892C14.1241 28.2299 14.5723 28.112 14.9998 27.9385V24.3332C14.9998 24.1564 15.0701 23.9868 15.1951 23.8618C15.3201 23.7368 15.4897 23.6665 15.6665 23.6665C15.8433 23.6665 16.0129 23.7368 16.1379 23.8618C16.2629 23.9868 16.3332 24.1564 16.3332 24.3332V34.9999C16.3332 35.1767 16.4034 35.3462 16.5284 35.4713C16.6535 35.5963 16.823 35.6665 16.9998 35.6665C17.1766 35.6665 17.3462 35.5963 17.4712 35.4713C17.5963 35.3462 17.6665 35.1767 17.6665 34.9999V22.9999C17.6665 22.823 17.7367 22.6535 17.8618 22.5285C17.9868 22.4034 18.1564 22.3332 18.3332 22.3332C18.51 22.3332 18.6796 22.4034 18.8046 22.5285C18.9296 22.6535 18.9998 22.823 18.9998 22.9999V24.8165C19.6709 25.2949 20.4587 25.5833 21.28 25.6513C22.1013 25.7194 22.9258 25.5646 23.6665 25.2032V22.9999C23.6665 22.823 23.7367 22.6535 23.8618 22.5285C23.9868 22.4034 24.1564 22.3332 24.3332 22.3332C24.51 22.3332 24.6796 22.4034 24.8046 22.5285C24.9296 22.6535 24.9998 22.823 24.9998 22.9999V34.3332C24.9998 34.6868 25.1403 35.026 25.3904 35.276C25.6404 35.5261 25.9795 35.6665 26.3332 35.6665C26.6868 35.6665 27.0259 35.5261 27.276 35.276C27.526 35.026 27.6665 34.6868 27.6665 34.3332V20.9999C27.6665 20.823 27.7367 20.6535 27.8618 20.5285C27.9868 20.4034 28.1564 20.3332 28.3332 20.3332C28.51 20.3332 28.6796 20.4034 28.8046 20.5285C28.9296 20.6535 28.9998 20.823 28.9998 20.9999V25.3505C29.4332 25.4905 29.8801 25.5845 30.3332 25.6312V24.3332C30.3332 24.1564 30.4034 23.9868 30.5284 23.8618C30.6535 23.7368 30.823 23.6665 30.9998 23.6665C31.1766 23.6665 31.3462 23.7368 31.4712 23.8618C31.5963 23.9868 31.6665 24.1564 31.6665 24.3332V31.6665C31.6665 31.8433 31.7367 32.0129 31.8618 32.1379C31.9868 32.263 32.1564 32.3332 32.3332 32.3332C32.51 32.3332 32.6796 32.263 32.8046 32.1379C32.9296 32.0129 32.9998 31.8433 32.9998 31.6665V23.6665C32.9998 23.4897 33.0701 23.3201 33.1951 23.1951C33.3201 23.0701 33.4897 22.9999 33.6665 22.9999C33.8433 22.9999 34.0129 23.0701 34.1379 23.1951C34.2629 23.3201 34.3332 23.4897 34.3332 23.6665V24.7765C35.59 24.0515 36.5757 22.9359 37.1405 21.5995C37.7054 20.263 37.8184 18.7786 37.4626 17.372C37.1067 15.9654 36.3014 14.7134 35.1689 13.8063C34.0365 12.8993 32.6389 12.3867 31.1885 12.3465ZM17.6665 2.99986C16.5981 3.00902 15.5769 3.44162 14.827 4.20275C14.0771 4.96389 13.6598 5.9914 13.6665 7.05986C13.6665 7.23667 13.5963 7.40624 13.4712 7.53126C13.3462 7.65629 13.1767 7.72652 12.9998 7.72652C12.823 7.72652 12.6535 7.65629 12.5284 7.53126C12.4034 7.40624 12.3332 7.23667 12.3332 7.05986C12.327 5.63794 12.885 4.2716 13.8848 3.26053C14.8846 2.24947 16.2446 1.67622 17.6665 1.66652C17.8433 1.66652 18.0129 1.73676 18.1379 1.86179C18.2629 1.98681 18.3332 2.15638 18.3332 2.33319C18.3332 2.51 18.2629 2.67957 18.1379 2.80459C18.0129 2.92962 17.8433 2.99986 17.6665 2.99986Z" fill="white"/>
<path d="M6.33301 4.33301C7.43758 4.33301 8.33301 3.43758 8.33301 2.33301C8.33301 1.22844 7.43758 0.333008 6.33301 0.333008C5.22844 0.333008 4.33301 1.22844 4.33301 2.33301C4.33301 3.43758 5.22844 4.33301 6.33301 4.33301Z" fill="white"/>
<path d="M34.9997 6.33333C36.4724 6.33333 37.6663 5.13943 37.6663 3.66667C37.6663 2.19391 36.4724 1 34.9997 1C33.5269 1 32.333 2.19391 32.333 3.66667C32.333 5.13943 33.5269 6.33333 34.9997 6.33333Z" fill="white"/>
</svg>
